<?xml version="1.0" encoding="iso-8859-1"?>
<!-- Uploaded to: SVG Repo, www.svgrepo.com, Generator: SVG Repo Mixer Tools -->
<!DOCTYPE svg PUBLIC "-//W3C//DTD SVG 1.1//EN" "http://www.w3.org/Graphics/SVG/1.1/DTD/svg11.dtd">
<svg fill="#fff" version="1.1" id="Capa_1" xmlns="http://www.w3.org/2000/svg" xmlns:xlink="http://www.w3.org/1999/xlink" 
	 width="800px" height="800px" viewBox="0 0 429.47 429.47"
	 xml:space="preserve">
<g>
	<path d="M0.337,343.831c0.008,7.241,5.58,13.108,12.435,13.108h2.541c0.503-2.585,1.242-5.113,1.894-7.666l399.156-0.562
		c7.249-0.008,13.124-5.895,13.107-13.148l-0.336-240.696c-0.017-3.032-1.026-5.819-2.777-8.031
		c-2.545-4.538-7.879-7.129-11.99-9.992c-4.092-2.868-9.021-4.5-11.245-4.298L26.195,73.065c-3.398,0.006-5.959,1.256-9.917,3.615
		c-3.969,2.36-7.692,4.59-11.563,7.785c-3.875,3.212-4.466,7.199-4.458,11l0.008,4.945C0.092,101.288,0,102.193,0,103.125
		L0.337,343.831z M413.577,338.946c-4.084,0.008-7.382-3.29-7.398-7.374c0-4.079,3.299-7.394,7.378-7.397
		c4.075,0,7.374,3.302,7.39,7.374C420.962,335.636,417.648,338.938,413.577,338.946z M413.224,101.454
		c4.088-0.008,7.386,3.296,7.398,7.37c0,4.083-3.295,7.388-7.382,7.396c-4.071,0-7.366-3.298-7.366-7.379
		C405.858,104.764,409.152,101.454,413.224,101.454z M361.264,89.49c-2.845,20.293-4.585,32.541-7.723,54.82
		c-0.749,5.378-5.75,9.287-11.16,8.59H105.145c-5.426,0.711-10.423-2.845-11.201-8.223c-3.198-22.248-4.961-34.51-7.883-54.788
		L361.264,89.49z M33.023,186.041c0-3.312,2.821-6.242,6.44-6.25h350.113c3.618-0.006,6.685,2.429,6.685,5.739v120.528
		c0,3.306-2.821,6.239-6.44,6.247H39.704c-3.619,0-6.68-2.421-6.68-5.727V186.041z M26.273,331.549c0,4.087-3.304,7.39-7.38,7.397
		c-4.076,0-7.385-3.298-7.385-7.374c-0.008-4.079,3.288-7.386,7.369-7.394C22.961,324.167,26.273,327.469,26.273,331.549z
		 M18.557,101.454c4.067-0.016,7.378,3.288,7.386,7.37c0.008,4.083-3.304,7.388-7.364,7.396c-4.074,0.006-7.386-3.298-7.402-7.372
		C11.177,104.764,14.465,101.454,18.557,101.454z"/>
	<path d="M103.42,283.287c22.654-0.028,40.996-18.438,40.96-41.093c-0.03-22.653-18.428-40.993-41.072-40.963
		c-22.662,0.024-41,18.426-40.97,41.088C62.37,264.981,80.754,283.319,103.42,283.287z M78.79,225.877l2.795,2.781l8.111-8.128
		l-2.787-2.789c3.17-2.132,6.789-3.658,10.676-4.428l0.008,3.927l11.487-0.02l-0.012-3.93c3.887,0.764,7.506,2.278,10.68,4.395
		l-2.779,2.801l8.123,8.119l2.787-2.801c2.128,3.174,3.661,6.784,4.431,10.672l-3.943,0.008l0.018,11.478h3.941
		c-0.771,3.895-2.278,7.514-4.404,10.688l-2.803-2.793l-8.103,8.135l2.795,2.785c-3.17,2.128-6.781,3.654-10.668,4.428l-0.008-3.931
		l-11.491,0.008l0.014,3.932c-3.894-0.766-7.512-2.276-10.702-4.408l2.788-2.789l-8.115-8.104l-2.795,2.789
		c-2.125-3.174-3.652-6.784-4.43-10.672l3.943-0.008l-0.019-11.489h-3.941C75.157,232.665,76.67,229.055,78.79,225.877z"/>
	<path d="M178.775,279.479l71.791-0.1c-5.61-11.241-8.776-23.896-8.8-37.313c-0.017-15.188,4.003-29.428,11.024-41.729
		l-76.458,0.108c7.043,12.279,11.117,26.501,11.141,41.689C187.481,255.552,184.35,268.224,178.775,279.479z"/>
	<path d="M325.922,282.982c22.666-0.04,41.004-18.438,40.977-41.092c-0.032-22.654-18.431-40.996-41.076-40.974
		c-22.662,0.032-41,18.436-40.972,41.083C284.882,264.669,303.272,283.007,325.922,282.982z M301.305,225.56l2.789,2.785
		l8.103-8.143l-2.78-2.777c3.174-2.128,6.792-3.655,10.671-4.426v3.929l11.498-0.016l-0.017-3.927
		c3.896,0.761,7.515,2.28,10.68,4.396l-2.78,2.797l8.143,8.119l2.781-2.797c2.14,3.174,3.658,6.792,4.44,10.68h-3.928v11.489
		l3.939-0.008c-0.773,3.887-2.284,7.498-4.408,10.672l-2.781-2.773l-8.119,8.135l2.798,2.773c-3.174,2.14-6.793,3.659-10.685,4.433
		v-3.928l-11.485,0.008v3.936c-3.879-0.762-7.497-2.28-10.671-4.4l2.772-2.785l-8.123-8.11l-2.785,2.789
		c-2.124-3.174-3.646-6.789-4.424-10.676h3.943l-0.032-11.493h-3.939C297.67,232.36,299.173,228.742,301.305,225.56z"/>
</g>
</svg>