<?xml version="1.0" encoding="utf-8"?>

<!DOCTYPE svg PUBLIC "-//W3C//DTD SVG 1.1//EN" "http://www.w3.org/Graphics/SVG/1.1/DTD/svg11.dtd">
<!-- Uploaded to: SVG Repo, www.svgrepo.com, Generator: SVG Repo Mixer Tools -->
<svg height="800px" width="800px" version="1.1" id="_x32_" xmlns="http://www.w3.org/2000/svg" xmlns:xlink="http://www.w3.org/1999/xlink" 
	 viewBox="0 0 512 512"  xml:space="preserve">
<style type="text/css">
	.st0{fill:#fff;}
</style>
<g>
	<path class="st0" d="M497.627,92.939H14.372C6.432,92.939,0,99.371,0,107.304v297.398c0,7.926,6.432,14.358,14.372,14.358h64.77
		l14.942-63.832c2.57-10.989,12.372-18.756,23.653-18.756h276.524c11.281,0,21.083,7.766,23.653,18.756l14.942,63.832h64.77
		c7.94,0,14.373-6.432,14.373-14.358V107.304C512,99.371,505.567,92.939,497.627,92.939z M30.412,401.952
		c-5.599,0-10.135-4.544-10.135-10.135c0-5.599,4.536-10.135,10.135-10.135c5.605,0,10.142,4.536,10.142,10.135
		C40.554,397.409,36.018,401.952,30.412,401.952z M30.412,134.118c-5.599,0-10.135-4.529-10.135-10.135
		c0-5.599,4.536-10.135,10.135-10.135c5.605,0,10.142,4.536,10.142,10.135C40.554,129.589,36.018,134.118,30.412,134.118z
		 M412.17,291.237c-10.982,10.976-26.133,17.783-42.846,17.783H142.676c-16.714,0-31.864-6.807-42.84-17.783
		c-10.975-10.975-17.776-26.133-17.776-42.839c0-16.721,6.801-31.864,17.776-42.84c10.976-10.982,26.126-17.783,42.84-17.783
		h226.647c16.714,0,31.864,6.801,42.846,17.783c10.976,10.976,17.77,26.12,17.77,42.84
		C429.94,265.103,423.146,280.261,412.17,291.237z M481.588,401.952c-5.606,0-10.142-4.544-10.142-10.135
		c0-5.599,4.536-10.135,10.142-10.135c5.599,0,10.135,4.536,10.135,10.135C491.723,397.409,487.186,401.952,481.588,401.952z
		 M481.588,134.118c-5.606,0-10.142-4.529-10.142-10.135c0-5.599,4.536-10.135,10.142-10.135c5.599,0,10.135,4.536,10.135,10.135
		C491.723,129.589,487.186,134.118,481.588,134.118z"/>
	<path class="st0" d="M394.262,349.151H117.738c-2.702,0-5.21,0.924-7.224,2.514c-2,1.591-3.474,3.82-4.092,6.454L92.16,419.061
		h327.686l-14.268-60.936C404.348,352.86,399.659,349.143,394.262,349.151z M163.447,398.812c-8.065,0-14.602-6.544-14.602-14.602
		c0-8.065,6.536-14.602,14.602-14.602c8.058,0,14.601,6.537,14.601,14.602C178.048,392.268,171.504,398.812,163.447,398.812z
		 M367.476,398.812c-8.065,0-14.602-6.544-14.602-14.602c0-8.065,6.536-14.602,14.602-14.602c8.065,0,14.595,6.537,14.595,14.602
		C382.07,392.268,375.54,398.812,367.476,398.812z"/>
	<path class="st0" d="M187.461,248.397c0-12.358-5.023-23.577-13.122-31.67c-8.086-8.086-19.312-13.115-31.663-13.115
		s-23.57,5.029-31.663,13.115c-8.1,8.093-13.115,19.312-13.115,31.67c0,12.351,5.015,23.569,13.115,31.662
		c8.093,8.093,19.312,13.116,31.663,13.116s23.576-5.023,31.663-13.116C182.438,271.967,187.461,260.748,187.461,248.397z
		 M168.969,274.676c-5.571,5.571-12.865,9.364-21.035,10.517V274.87h-10.51v10.323c-8.163-1.153-15.463-4.946-21.034-10.517
		c-0.931-0.924-1.806-1.903-2.632-2.931l9.128-5.28l-5.252-9.1l-9.267,5.363c-1.848-4.411-2.862-9.246-2.862-14.33
		c0-4.724,0.882-9.232,2.487-13.38l9.642,5.564l5.252-9.1l-9.753-5.627c1-1.32,2.091-2.57,3.258-3.751
		c5.571-5.558,12.872-9.35,21.034-10.504v11.49h10.51v-11.49c8.17,1.153,15.464,4.946,21.035,10.504
		c1.167,1.181,2.251,2.431,3.265,3.751l-9.767,5.627l5.259,9.1l9.642-5.564c1.598,4.147,2.487,8.656,2.487,13.38
		c0,5.084-1.021,9.912-2.862,14.33l-9.266-5.363l-5.259,9.1l9.135,5.28C170.776,272.773,169.894,273.752,168.969,274.676z"/>
	<path class="st0" d="M227.605,194.741H169.31c9.308,4.606,17.262,11.608,23.056,20.18c3.23,4.772,5.78,10.045,7.53,15.658
		c1.737,5.599,2.689,11.573,2.689,17.818c0,8.329-1.682,16.151-4.71,23.305c-4.523,10.726-12.15,19.916-21.716,26.376
		c-2.181,1.466-4.466,2.8-6.822,3.967h58.268c4.641-7.336,8.371-15.324,11.011-23.785c2.932-9.454,4.522-19.506,4.522-29.863
		c0-13.817-2.82-27.086-7.912-39.117C233.086,204.203,230.523,199.34,227.605,194.741z"/>
	<path class="st0" d="M369.324,203.612c-12.358,0-23.57,5.029-31.663,13.115c-8.1,8.093-13.122,19.312-13.122,31.67
		c0,12.351,5.022,23.569,13.122,31.662c8.093,8.093,19.305,13.116,31.663,13.116c12.351,0,23.57-5.023,31.663-13.116
		c8.099-8.093,13.115-19.311,13.115-31.662c0-12.358-5.016-23.577-13.115-31.67C392.894,208.641,381.674,203.612,369.324,203.612z
		 M406.495,248.397c0,5.084-1.022,9.912-2.863,14.33l-9.266-5.363l-5.252,9.1l9.128,5.28c-0.826,1.028-1.702,2.007-2.632,2.931
		c-5.571,5.571-12.872,9.364-21.034,10.517V274.87h-10.51v10.323c-8.162-1.153-15.463-4.946-21.034-10.517
		c-0.924-0.924-1.806-1.903-2.632-2.931l9.135-5.28l-5.252-9.1l-9.274,5.363c-1.841-4.411-2.855-9.246-2.862-14.33
		c0.007-4.724,0.889-9.232,2.487-13.38l9.65,5.564l5.252-9.1l-9.76-5.627c1.008-1.32,2.091-2.57,3.258-3.751
		c5.571-5.558,12.872-9.35,21.034-10.504v11.49h10.51v-11.49c8.162,1.153,15.463,4.946,21.034,10.504
		c1.167,1.181,2.258,2.431,3.265,3.751l-9.76,5.627l5.252,9.1l9.642-5.564C405.613,239.165,406.495,243.673,406.495,248.397z"/>
	<path class="st0" d="M319.648,281.873c-3.238-4.78-5.8-10.045-7.53-15.658c-1.758-5.612-2.702-11.572-2.702-17.817
		c0.014-8.329,1.681-16.158,4.703-23.32c4.536-10.718,12.15-19.909,21.723-26.369c2.181-1.472,4.446-2.806,6.821-3.966h-34.587
		c-2.271,2.563-4.362,5.272-6.272,8.106c-4.398,6.489-7.884,13.658-10.268,21.334c-2.382,7.662-3.668,15.817-3.668,24.216
		c0,11.19,2.286,21.951,6.419,31.711c3.417,8.071,8.086,15.463,13.775,21.937h34.608
		C333.368,297.433,325.407,290.417,319.648,281.873z"/>
</g>
</svg>