<?xml version="1.0" encoding="iso-8859-1"?>
<!-- Uploaded to: SVG Repo, www.svgrepo.com, Generator: SVG Repo Mixer Tools -->
<svg fill="#fff" height="800px" width="800px" version="1.1" id="Layer_1" xmlns="http://www.w3.org/2000/svg" xmlns:xlink="http://www.w3.org/1999/xlink" 
	 viewBox="0 0 512 512" xml:space="preserve">
<g>
	<g>
		<g>
			<path d="M298.667,256c0-23.531-19.136-42.667-42.667-42.667S213.333,232.469,213.333,256s19.136,42.667,42.667,42.667
				S298.667,279.531,298.667,256z"/>
			<path d="M256,0C114.837,0,0,114.837,0,256s114.837,256,256,256s256-114.837,256-256S397.163,0,256,0z M128,256
				c0,11.776-9.536,21.333-21.333,21.333c-11.797,0-21.333-9.557-21.333-21.333c0-94.101,76.565-170.667,170.667-170.667
				c11.797,0,21.333,9.557,21.333,21.333S267.797,128,256,128C185.408,128,128,185.408,128,256z M170.667,256
				c0-47.061,38.272-85.333,85.333-85.333s85.333,38.272,85.333,85.333S303.061,341.333,256,341.333S170.667,303.061,170.667,256z
				 M256,426.667c-11.797,0-21.333-9.557-21.333-21.333S244.203,384,256,384c70.592,0,128-57.408,128-128
				c0-11.776,9.536-21.333,21.333-21.333c11.797,0,21.333,9.557,21.333,21.333C426.667,350.101,350.101,426.667,256,426.667z"/>
		</g>
	</g>
</g>
</svg>