<?xml version="1.0" encoding="iso-8859-1"?>
<!-- Uploaded to: SVG Repo, www.svgrepo.com, Generator: SVG Repo Mixer Tools -->
<!DOCTYPE svg PUBLIC "-//W3C//DTD SVG 1.1//EN" "http://www.w3.org/Graphics/SVG/1.1/DTD/svg11.dtd">
<svg fill="#000000" height="800px" width="800px" version="1.1" id="Capa_1" xmlns="http://www.w3.org/2000/svg" xmlns:xlink="http://www.w3.org/1999/xlink" 
	 viewBox="0 0 280 280" xml:space="preserve">
<g>
	<g>
		<g>
			<path d="M184.201,57.392H95.8c-4.411,0-8,3.589-8,8c0,4.411,3.589,8,8,8h88.4c4.411,0,8-3.589,8-8
				C192.201,60.98,188.612,57.392,184.201,57.392z"/>
			<path d="M95.8,35.725h88.4c4.411,0,8-3.589,8-8s-3.589-8-8-8H95.8c-4.411,0-8,3.589-8,8S91.389,35.725,95.8,35.725z"/>
		</g>
		<path d="M275,0h-56.116v98.758c0,2.761-2.239,5-5,5H66.115c-2.761,0-5-2.239-5-5V0H5C2.239,0,0,2.239,0,5v213.017
			c0,1.326,0.527,2.598,1.464,3.535l56.984,56.983c0.87,0.87,2.029,1.366,3.25,1.437v-69.413c0-2.762,2.239-5,5-5h156.604
			c2.761,0,5,2.238,5,5V280H275c2.761,0,5-2.238,5-5V5C280,2.239,277.761,0,275,0z"/>
	</g>
	<path d="M76.449,220.559V280h136.604v-59.441H76.449z M107.97,270c0,2.762-2.239,5-5,5s-5-2.238-5-5v-35.001c0-2.762,2.239-5,5-5
		s5,2.238,5,5V270z"/>
</g>
</svg>