<?xml version="1.0" encoding="iso-8859-1"?>
<!-- Uploaded to: SVG Repo, www.svgrepo.com, Generator: SVG Repo Mixer Tools -->
<svg height="800px" width="800px" version="1.1" id="Capa_1" xmlns="http://www.w3.org/2000/svg" xmlns:xlink="http://www.w3.org/1999/xlink" 
	 viewBox="0 0 13.679 13.679" xml:space="preserve">
<g>
	<g>
		<path style="fill:#fff;" d="M13.383,1.361l-0.975-1.229c-0.127-0.158-0.318-0.13-0.318-0.13H0.439
			c-0.242,0-0.438,0.195-0.438,0.437v12.802c0,0.241,0.196,0.438,0.438,0.438H13.24c0.242,0,0.438-0.196,0.438-0.438V12.72v-0.084
			V2.07C13.678,2.032,13.68,1.768,13.383,1.361z M2.298,0.895h8.79v5.704h-8.79C2.298,6.599,2.298,0.895,2.298,0.895z M7.181,11.805
			c-1.17,0-2.12-0.949-2.12-2.119s0.949-2.119,2.12-2.119c1.17,0,2.118,0.949,2.118,2.119S8.351,11.805,7.181,11.805z"/>
		<path style="fill:#fff;" d="M9.866,5.707h-2.25V1.951h2.25V5.707z"/>
		<path style="fill:#fff;" d="M7.195,8.681c-0.555,0-1.003,0.449-1.003,1.003c0,0.555,0.449,1.003,1.003,1.003
			c0.553,0,1.002-0.448,1.002-1.003C8.197,9.13,7.748,8.681,7.195,8.681z"/>
	</g>
</g>
</svg>