<?xml version="1.0" encoding="utf-8"?>

<!DOCTYPE svg PUBLIC "-//W3C//DTD SVG 1.0//EN" "http://www.w3.org/TR/2001/REC-SVG-20010904/DTD/svg10.dtd">
<!-- Uploaded to: SVG Repo, www.svgrepo.com, Generator: SVG Repo Mixer Tools -->
<svg version="1.0" id="Layer_1" xmlns="http://www.w3.org/2000/svg" xmlns:xlink="http://www.w3.org/1999/xlink" 
	 width="800px" height="800px" viewBox="0 0 64 64" enable-background="new 0 0 64 64" xml:space="preserve">
<g>
	<circle fill="#fff" cx="45" cy="12" r="1"/>
	<circle fill="#fff" cx="45" cy="26" r="1"/>
	<circle fill="#fff" cx="38" cy="19" r="1"/>
	<polygon fill="#fff" points="20,39 18,39 18,44 13,44 13,46 18,46 18,51 20,51 20,46 25,46 25,44 20,44 	"/>
	<path fill="#fff" d="M44,0c-6.558,0-12.361,3.166-16.002,8.045c-1.138,1.523-2.064,3.213-2.735,5.028
		c-0.58,1.916-1.48,3.71-2.632,5.315L5.122,0.879c-1.172-1.172-3.071-1.171-4.243,0c-1.171,1.172-1.172,3.071,0,4.243l17.514,17.513
		c-1.566,1.125-3.312,2.007-5.185,2.573c-0.049,0.015-0.085,0.04-0.135,0.055c-1.814,0.671-3.505,1.598-5.028,2.735
		C3.165,31.639,0,37.442,0,44c0,11.046,8.954,20,20,20c6.558,0,12.361-3.166,16.002-8.045c1.138-1.523,2.064-3.213,2.735-5.028
		c1.738-5.739,6.45-10.452,12.189-12.189c1.814-0.671,3.505-1.598,5.028-2.735C60.835,32.361,64,26.558,64,20
		C64,8.954,55.046,0,44,0z M2.294,3.708c-0.392-0.392-0.392-1.023,0-1.414c0.391-0.392,1.022-0.392,1.414,0l17.664,17.665
		l-1.409,1.418L2.294,3.708z M27,47c0,0.553-0.447,1-1,1h-4v4c0,0.553-0.447,1-1,1h-4c-0.553,0-1-0.447-1-1v-4h-4
		c-0.553,0-1-0.447-1-1v-4c0-0.553,0.447-1,1-1h4v-4c0-0.553,0.447-1,1-1h4c0.553,0,1,0.447,1,1v4h4c0.553,0,1,0.447,1,1V47z
		 M31.293,34.121l-2.121,2.121c-0.392,0.392-1.023,0.392-1.414,0c-0.392-0.391-0.392-1.022,0-1.414l2.121-2.121
		c0.391-0.391,1.023-0.391,1.414,0S31.684,33.73,31.293,34.121z M36.242,29.172l-2.121,2.121c-0.391,0.391-1.023,0.391-1.414,0
		s-0.391-1.023,0-1.414l2.121-2.121c0.391-0.391,1.023-0.391,1.414,0S36.633,28.781,36.242,29.172z M38,22c-1.657,0-3-1.344-3-3
		s1.343-3,3-3s3,1.344,3,3S39.657,22,38,22z M45,29c-1.656,0-3-1.343-3-3s1.344-3,3-3s3,1.343,3,3S46.656,29,45,29z M45,15
		c-1.656,0-3-1.343-3-3s1.344-3,3-3s3,1.343,3,3S46.656,15,45,15z M52,22c-1.657,0-3-1.344-3-3s1.343-3,3-3s3,1.344,3,3
		S53.657,22,52,22z"/>
	<circle fill="#fff" cx="52" cy="19" r="1"/>
</g>
</svg>